<svg xmlns="http://www.w3.org/2000/svg" xmlns:xlink="http://www.w3.org/1999/xlink" width="100" height="100" viewBox="0 0 100 100"><g><g transform="translate(50 50) scale(0.69 0.69) rotate(0) translate(-50 -50)" style="fill:#000000"><svg fill="#000000" xmlns="http://www.w3.org/2000/svg" xmlns:xlink="http://www.w3.org/1999/xlink" version="1.1" x="0px" y="0px" viewBox="0 0 66 66" enable-background="new 0 0 66 66" xml:space="preserve"><g><g><path d="M26.6,18.2h12.9c0.6,0,1-0.4,1-1v-4.4c0-1-0.5-1.9-1.3-2.4c-0.1,0-0.1-0.1-0.2-0.1l-0.5-0.2c-1.1,2.1-3.1,3.8-5.5,3.8    s-4.4-1.7-5.5-3.8L27,10.3c-0.1,0-0.2,0.1-0.2,0.1c-0.8,0.5-1.3,1.4-1.3,2.4v4.4C25.6,17.7,26,18.2,26.6,18.2z"></path></g><g><path d="M33,11.9c2.4,0,4.4-2.9,4.4-5.3c0-2.4-2-4.4-4.4-4.4c-2.4,0-4.4,2-4.4,4.4C28.6,9,30.6,11.9,33,11.9z"></path></g><g><path d="M8.5,29.3h12.9c0.6,0,1-0.4,1-1v-4.4c0-1-0.5-1.9-1.3-2.4c-0.1,0-0.1-0.1-0.2-0.1l-0.5-0.2c-1.1,2.1-3.1,3.8-5.5,3.8    s-4.4-1.7-5.5-3.8L9,21.4c-0.1,0-0.2,0.1-0.2,0.1C8,22,7.5,23,7.5,23.9v4.4C7.5,28.8,7.9,29.3,8.5,29.3z"></path></g><g><path d="M14.9,23c2.4,0,4.4-2.9,4.4-5.3c0-2.4-2-4.4-4.4-4.4c-2.4,0-4.4,2-4.4,4.4C10.6,20.1,12.5,23,14.9,23z"></path></g><g><path d="M44.6,29.3h12.9c0.6,0,1-0.4,1-1v-4.4c0-1-0.5-1.9-1.3-2.4c-0.1,0-0.1-0.1-0.2-0.1l-0.5-0.2c-1.1,2.1-3.1,3.8-5.5,3.8    c-2.4,0-4.4-1.7-5.5-3.8l-0.5,0.2c-0.1,0-0.2,0.1-0.2,0.1c-0.8,0.5-1.3,1.4-1.3,2.4v4.4C43.6,28.8,44.1,29.3,44.6,29.3z"></path></g><g><path d="M51.1,23c2.4,0,4.4-2.9,4.4-5.3c0-2.4-2-4.4-4.4-4.4c-2.4,0-4.4,2-4.4,4.4C46.7,20.1,48.7,23,51.1,23z"></path></g><g><path d="M14.1,56c-0.1,0-0.1-0.1-0.2-0.1l-0.4-0.2c-1.1,2.1-3.1,3.8-5.5,3.8s-4.4-1.7-5.5-3.8L2,55.9c-0.1,0-0.1,0.1-0.2,0.1    c-0.8,0.5-1.3,1.4-1.3,2.4v4.4c0,0.6,0.4,1,1,1h12.9c0.6,0,1-0.4,1-1v-4.4C15.4,57.4,14.9,56.5,14.1,56z"></path></g><g><path d="M7.9,57.5c2.4,0,4.4-2.9,4.4-5.3c0-2.4-1.9-4.4-4.4-4.4c-2.4,0-4.4,2-4.4,4.4C3.6,54.6,5.5,57.5,7.9,57.5z"></path></g><g><path d="M30.8,56c-0.1,0-0.1-0.1-0.2-0.1l-0.5-0.2c-1.1,2.1-3.1,3.8-5.5,3.8c-2.4,0-4.4-1.7-5.5-3.8l-0.5,0.2    c-0.1,0-0.1,0.1-0.2,0.1c-0.8,0.5-1.3,1.4-1.3,2.4v4.4c0,0.6,0.5,1,1,1h12.9c0.6,0,1-0.4,1-1v-4.4C32.1,57.4,31.6,56.5,30.8,56z"></path></g><g><path d="M20.3,52.2c0,2.4,1.9,5.3,4.4,5.3c2.4,0,4.4-2.9,4.4-5.3c0-2.4-2-4.4-4.4-4.4C22.2,47.8,20.3,49.8,20.3,52.2z"></path></g><g><path d="M47.5,56c-0.1,0-0.1-0.1-0.2-0.1l-0.5-0.2c-1.1,2.1-3.1,3.8-5.5,3.8c-2.4,0-4.4-1.7-5.5-3.8l-0.5,0.2    c-0.1,0-0.1,0.1-0.2,0.1c-0.8,0.5-1.3,1.4-1.3,2.4v4.4c0,0.6,0.5,1,1,1h12.9c0.6,0,1-0.4,1-1v-4.4C48.8,57.4,48.3,56.5,47.5,56z"></path></g><g><path d="M37,52.2c0,2.4,1.9,5.3,4.3,5.3c2.4,0,4.4-2.9,4.4-5.3c0-2.4-2-4.4-4.4-4.4C39,47.8,37,49.8,37,52.2z"></path></g><g><path d="M64.2,56c-0.1,0-0.1-0.1-0.2-0.1l-0.5-0.2c-1.1,2.1-3.1,3.8-5.5,3.8c-2.4,0-4.4-1.7-5.5-3.8l-0.5,0.2    c-0.1,0-0.1,0.1-0.2,0.1c-0.8,0.5-1.3,1.4-1.3,2.4v4.4c0,0.6,0.5,1,1,1h12.9c0.6,0,1-0.4,1-1v-4.4C65.5,57.4,65,56.5,64.2,56z"></path></g><g><path d="M53.7,52.2c0,2.4,1.9,5.3,4.4,5.3c2.4,0,4.4-2.9,4.4-5.3c0-2.4-1.9-4.4-4.4-4.4C55.7,47.8,53.7,49.8,53.7,52.2z"></path></g><g><path d="M20.9,46.3c0.4-0.4,0.4-1,0-1.4l-4.1-4.3v-8.1c0-0.6-0.5-1-1-1c-0.6,0-1,0.4-1,1v8.1l-4.1,4.3c-0.4,0.4-0.4,1,0,1.4    c0.4,0.4,1.1,0.4,1.4,0l3.7-3.9l3.7,3.9C19.9,46.7,20.5,46.7,20.9,46.3z"></path></g><g><path d="M55.3,46.3c0.4-0.4,0.4-1,0-1.4l-4.1-4.3v-8.1c0-0.6-0.5-1-1-1c-0.6,0-1,0.4-1,1v8.1l-4.1,4.3c-0.4,0.4-0.4,1,0,1.4    c0.4,0.4,1,0.4,1.4,0l3.7-3.9l3.7,3.9C54.3,46.7,55,46.7,55.3,46.3z"></path></g><g><path d="M38.5,27.5c0.3-0.5,0.1-1.1-0.4-1.4L34,24v-3.5c0-0.6-0.4-1-1-1c-0.5,0-1,0.4-1,1V24l-4.1,2.1c-0.5,0.3-0.7,0.9-0.4,1.4    c0.3,0.5,0.9,0.7,1.4,0.4l4.2-2.2l4.2,2.2C37.7,28.2,38.3,28,38.5,27.5z"></path></g></g></svg></g></g></svg>