<svg xmlns="http://www.w3.org/2000/svg" xmlns:xlink="http://www.w3.org/1999/xlink" width="100" height="100" viewBox="0 0 100 100"><g><g transform="translate(50 50) scale(0.69 0.69) rotate(0) translate(-50 -50)" style="fill:#000000"><svg fill="#000000" xmlns="http://www.w3.org/2000/svg" xmlns:xlink="http://www.w3.org/1999/xlink" version="1.1" x="0px" y="0px" viewBox="0 0 100 100" style="enable-background:new 0 0 100 100;" xml:space="preserve"><path d="M81.1,31.2c0-2,0-4-0.6-6c-0.7-2.3-2.2-4.2-4-5c-1.4-0.6-3-0.6-4.4-0.6H49.6c-7.2,0-14.6,0-21.5,0c-2.3-0.6-5,0.1-6.8,1.8  c-1.8,1.8-2.8,4.6-2.4,7.3c0.3,1.9,1.1,3.6,2.4,4.6c1,0.8,2.4,1.3,3.7,1.2l0,0h7.2l-0.1,42H41v3c0,0.4,0.2,0.8,0.6,0.9  c0.1,0.1,0.3,0.1,0.4,0.1c0.3,0,0.5-0.1,0.7-0.3l3-3l2.8,2.8c0.3,0.3,0.7,0.4,1.1,0.2c0.4-0.2,0.6-0.5,0.6-0.9v-2.8H81L81.1,31.2z   M22.6,31.8c-0.9-0.7-1.5-2-1.7-3.4c-0.3-2.1,0.4-4.2,1.8-5.6c1-1,2.4-1.5,3.7-1.5c0.6,0,1.2,0.1,1.7,0.3c1.6,0.6,2.9,2.2,3.5,4.3  c0.2,0.5,0.3,1.1,0.4,1.6h-5.4l0.2,1.1c0.2,1.2-0.1,2.7-1,3.5C25.1,32.9,23.5,32.6,22.6,31.8z M28.1,32.6c0.5-0.9,0.8-2,0.8-3h3.4  c0,0.9,0,1.8,0,2.7v0.3H28.1z M40.2,63.4L39.7,63c-0.3-0.3-0.3-0.7-0.2-0.8c0-0.1,0.2-0.5,0.6-0.5l0.6-0.1c0.3,0,0.5-0.2,0.7-0.4  s0.2-0.5,0.2-0.8l-0.1-0.6c-0.1-0.4,0.2-0.7,0.3-0.8s0.4-0.3,0.8-0.1l0.6,0.3c0.2,0.1,0.5,0.2,0.8,0.1c0.3-0.1,0.5-0.3,0.6-0.5  l0.3-0.6c0.2-0.4,0.6-0.5,0.7-0.5s0.5,0,0.7,0.5l0,0l0.3,0.6c0.1,0.3,0.3,0.4,0.6,0.5s0.6,0.1,0.8-0.1l0.6-0.3  c0.4-0.2,0.7,0,0.8,0.1s0.4,0.3,0.3,0.8l-0.1,0.6c-0.1,0.3,0,0.6,0.2,0.8s0.4,0.4,0.7,0.4l0.6,0.1c0.4,0.1,0.6,0.4,0.6,0.5  s0.1,0.5-0.2,0.8L51,63.4c-0.2,0.2-0.3,0.5-0.3,0.7c0,0.3,0.1,0.5,0.3,0.7l0.5,0.4c0.3,0.3,0.3,0.7,0.2,0.8c0,0.1-0.2,0.5-0.6,0.5  l-0.6,0.1c-0.3,0-0.5,0.2-0.7,0.4c-0.2,0.2-0.2,0.5-0.2,0.8l0.1,0.6c0.1,0.4-0.2,0.7-0.3,0.8c-0.1,0.1-0.4,0.3-0.8,0.1L48,69.1  C47.7,69,47.4,69,47.2,69c-0.3,0.1-0.5,0.3-0.6,0.5l-0.3,0.6c-0.2,0.4-0.6,0.5-0.7,0.5s-0.5,0-0.7-0.5l-0.3-0.6  c-0.1-0.3-0.3-0.4-0.6-0.5c-0.1,0-0.2,0-0.3,0c-0.2,0-0.3,0-0.5,0.1l-0.6,0.3c-0.4,0.2-0.7,0-0.8,0c-0.1-0.1-0.4-0.3-0.3-0.8  l0.1-0.6c0.1-0.3,0-0.6-0.2-0.8c-0.2-0.2-0.4-0.4-0.7-0.4l-0.6-0.1c-0.4-0.1-0.6-0.4-0.6-0.5s-0.1-0.5,0.2-0.8l0.5-0.4  c0.2-0.2,0.3-0.5,0.3-0.7C40.5,63.9,40.4,63.6,40.2,63.4z M46.5,75.2c-0.4-0.4-1-0.4-1.4,0l-2,2v-5.8h0.1c0.5,0.8,1.4,1.3,2.3,1.3  s1.8-0.5,2.3-1.3c0.1,0.1,0.3,0.1,0.4,0.1V77L46.5,75.2z M50.3,74.6v-3.5c0.1,0,0.1-0.1,0.2-0.1c0.8-0.6,1.2-1.5,1.1-2.4  c0.9-0.2,1.6-0.9,1.9-1.8s0.1-1.9-0.5-2.6c0.6-0.7,0.8-1.7,0.5-2.6c-0.3-0.9-1-1.6-1.9-1.8c0.1-0.9-0.4-1.8-1.1-2.4  c-0.8-0.6-1.8-0.7-2.6-0.3c-0.5-0.8-1.4-1.3-2.3-1.3s-1.8,0.5-2.3,1.3c-0.9-0.3-1.9-0.2-2.6,0.3c-0.8,0.6-1.2,1.5-1.1,2.4  c-0.9,0.2-1.6,0.9-1.9,1.8s-0.1,1.9,0.5,2.6c-0.6,0.7-0.8,1.7-0.5,2.6s1,1.6,1.9,1.8c-0.1,0.9,0.4,1.8,1.1,2.4  c0.2,0.1,0.3,0.2,0.5,0.3v3.3h-6.9v-11h1.9v-2h-1.9V32.3c0-2.3,0-4.6-0.7-6.9c-0.5-1.5-1.2-2.8-2.2-3.8c5.9,0,12.1,0,18.2,0h22.5  c1.2,0,2.5,0,3.6,0.5c1.3,0.6,2.4,1.9,2.9,3.7c0.5,1.7,0.5,3.6,0.5,5.4v30.4h-24v2h24v11C79.1,74.6,50.3,74.6,50.3,74.6z"></path><rect x="40.1" y="30.6" width="14" height="2"></rect><rect x="40.1" y="34.6" width="14" height="2"></rect><rect x="40.1" y="40.6" width="34" height="2"></rect><rect x="40.1" y="44.6" width="34" height="2"></rect><rect x="40.1" y="48.6" width="31" height="2"></rect><rect x="59.1" y="67.6" width="15" height="2"></rect></svg></g></g></svg>