<svg xmlns="http://www.w3.org/2000/svg" xmlns:xlink="http://www.w3.org/1999/xlink" width="100" height="100" viewBox="0 0 100 100"><g><g transform="translate(50 50) scale(0.69 0.69) rotate(0) translate(-50 -50)" style="fill:#000000"><svg fill="#000000" xmlns="http://www.w3.org/2000/svg" xmlns:xlink="http://www.w3.org/1999/xlink" version="1.1" x="0px" y="0px" viewBox="0 0 100 100" enable-background="new 0 0 100 100" xml:space="preserve"><g><path fill="none" d="M56.159,53.986c-0.968,0.084-1.709,0.298-1.968,0.724l1.15-2.395c-1.559,1.512-3.429,2.395-5.44,2.395   c-2.059,0-3.97-0.925-5.549-2.503l1.556,3.471l0.093,0.207c-0.066-0.108-0.176-0.205-0.303-0.296   c-0.177-0.126-0.404-0.237-0.678-0.332c-0.678-0.236-1.613-0.388-2.647-0.477c0.169,0.313,0.401,0.61,0.688,0.89   c0.861,0.837,2.214,1.501,3.846,1.87l2.995,4.866l2.994-4.866c0.011-0.003,0.021-0.006,0.032-0.008   c0.229-0.053,0.453-0.112,0.672-0.177c0.048-0.015,0.097-0.028,0.145-0.044c0.22-0.067,0.433-0.141,0.639-0.22   c0.038-0.014,0.074-0.029,0.111-0.044c0.208-0.082,0.411-0.169,0.604-0.263c0.004-0.002,0.009-0.004,0.013-0.006   c0.2-0.098,0.389-0.202,0.57-0.31c0.025-0.017,0.051-0.031,0.075-0.046c0.177-0.109,0.347-0.223,0.504-0.342   c0.011-0.009,0.021-0.018,0.032-0.026c0.323-0.248,0.6-0.517,0.822-0.8c0.009-0.012,0.019-0.023,0.027-0.035   c0.109-0.144,0.207-0.291,0.289-0.44c0.144-0.269,0.245-0.548,0.293-0.834C57.164,53.932,56.636,53.944,56.159,53.986z"></path><path fill="none" d="M79.137,51.147c3.501,0,6.394-3.802,6.848-8.735c-0.308,0.077-0.686,0.227-1.099,0.514   c0,0,0.783-4.641-0.867-5.292c0,0-2.278,1.106-4.882,1.177c-2.604-0.071-4.882-1.177-4.882-1.177   c-1.65,0.651-0.868,5.293-0.868,5.293c-0.412-0.288-0.79-0.437-1.098-0.514C72.743,47.345,75.635,51.147,79.137,51.147z"></path><path fill="none" d="M20.668,51.147c3.501,0,6.394-3.803,6.848-8.735c-0.308,0.077-0.686,0.227-1.098,0.514   c0,0,0.782-4.641-0.869-5.292c0,0-2.277,1.106-4.881,1.177c-2.604-0.071-4.881-1.177-4.881-1.177   c-1.651,0.651-0.868,5.293-0.868,5.293c-0.413-0.288-0.791-0.438-1.099-0.515C14.274,47.345,17.166,51.147,20.668,51.147z"></path><path fill="none" d="M58.005,40.606l-2.927-0.372c1.606-0.927,0.756-2.955,0.36-3.634c-0.117-0.201-0.198-0.318-0.198-0.318   c-0.023,0.017-0.046,0.033-0.068,0.049c-4.571,3.292-8.315,4.542-8.315,4.542c-2.065,0.815-5.525,1.388-5.525,1.388   c0.568,6.173,4.188,10.933,8.57,10.933c2.875,0,5.42-2.049,6.993-5.2c0.864-1.732,1.435-3.797,1.604-6.039   c0.06-0.409,0.09-0.826,0.096-1.25l-0.535-0.099H58.005z"></path><path d="M71.313,42.125c0.006,0.075,0.013,0.149,0.019,0.223c0.499,5.647,3.804,10.009,7.805,10.009s7.305-4.362,7.804-10.009   c0.007-0.074,0.013-0.148,0.019-0.223c0.036-0.245,0.06-0.493,0.074-0.744c0.01-0.172,0.017-0.345,0.017-0.52   c0-0.429-0.031-0.851-0.091-1.264c-0.577-4.001-3.86-7.066-7.822-7.066s-7.244,3.064-7.823,7.066   c-0.06,0.413-0.09,0.834-0.09,1.264c0,0.175,0.007,0.348,0.016,0.52C71.255,41.633,71.278,41.88,71.313,42.125z M74.255,37.634   c0,0,2.277,1.106,4.882,1.177c2.604-0.071,4.882-1.177,4.882-1.177c1.65,0.651,0.867,5.292,0.867,5.292   c0.413-0.287,0.791-0.437,1.099-0.514c-0.454,4.933-3.347,8.735-6.848,8.735c-3.502,0-6.394-3.802-6.848-8.735   c0.308,0.077,0.686,0.227,1.098,0.514C73.387,42.927,72.604,38.285,74.255,37.634z"></path><path d="M85.987,51.331c-0.018-0.003-0.037-0.004-0.055-0.007c-0.146-0.02-0.292-0.037-0.44-0.051c0,0.016-0.004,0.031-0.005,0.045   c-0.002,0.044-0.01,0.086-0.015,0.13c-0.027,0.245-0.101,0.483-0.214,0.712c-0.77,1.938-3.259,5.608-4.726,7.691l-0.302-4.329   c0.428-0.219,0.796-0.583,1.032-1.004c0.17-0.304,0.273-0.635,0.273-0.972c0,0-1.094,0.484-2.21,0.484   c-0.063,0-0.127-0.002-0.19-0.005c-0.063,0.003-0.127,0.005-0.191,0.005c-1.116,0-2.21-0.484-2.21-0.484   c0,0.337,0.104,0.668,0.273,0.972c0.236,0.421,0.604,0.785,1.032,1.004l-0.302,4.329c-1.466-2.083-3.955-5.754-4.724-7.691   c-0.115-0.229-0.188-0.467-0.216-0.712c-0.005-0.044-0.012-0.086-0.015-0.13c0-0.014-0.004-0.029-0.005-0.045   c-0.148,0.014-0.295,0.031-0.439,0.051c-0.019,0.003-0.037,0.004-0.055,0.007c-2.728,0.38-5.11,1.816-6.743,3.874   c3.392,2.706,5.465,6.854,5.465,11.285c0,0.335-0.016,0.648-0.039,0.954c0.885,0.025,1.814,0.026,2.775,0.026h5.393h5.392   C90.311,67.471,95,67.484,95,61.7C95,56.412,91.08,52.04,85.987,51.331z"></path><path d="M34.086,55.343c-1.709-2.148-4.25-3.605-7.141-3.87c-0.042,1.886-2.836,3.407-6.278,3.407   c-3.442,0-6.236-1.521-6.277-3.407C9.125,51.954,5,56.382,5,61.771c0,5.713,4.63,5.698,10.342,5.698h10.651   c0.986,0,1.939,0,2.842-0.029c-0.023-0.304-0.039-0.617-0.039-0.95C28.797,62.134,30.799,58.053,34.086,55.343z"></path><path d="M12.845,42.125c0.006,0.075,0.012,0.149,0.019,0.223c0.499,5.647,3.803,10.009,7.805,10.009   c4.001,0,7.305-4.362,7.805-10.009c0.007-0.074,0.013-0.148,0.019-0.223c0.036-0.245,0.059-0.493,0.074-0.745   c0.01-0.172,0.017-0.345,0.017-0.52c0-0.429-0.031-0.852-0.09-1.264c-0.578-4.001-3.86-7.067-7.823-7.067s-7.245,3.065-7.823,7.067   c-0.06,0.412-0.091,0.834-0.091,1.264c0,0.175,0.007,0.347,0.017,0.52C12.785,41.632,12.809,41.88,12.845,42.125z M15.787,37.634   c0,0,2.277,1.106,4.881,1.177c2.604-0.071,4.881-1.177,4.881-1.177c1.651,0.651,0.869,5.292,0.869,5.292   c0.413-0.287,0.791-0.437,1.098-0.514c-0.454,4.933-3.346,8.735-6.848,8.735c-3.502,0-6.394-3.803-6.848-8.735   c0.308,0.077,0.686,0.227,1.099,0.515C14.918,42.927,14.136,38.285,15.787,37.634z"></path><path d="M69.431,65.124c-0.023-0.219-0.047-0.438-0.081-0.652c-0.021-0.139-0.05-0.272-0.076-0.409   c-0.035-0.188-0.072-0.376-0.116-0.561c-0.034-0.147-0.073-0.292-0.113-0.437c-0.046-0.169-0.095-0.336-0.147-0.501   c-0.049-0.152-0.101-0.304-0.154-0.454c-0.055-0.149-0.112-0.299-0.171-0.447c-0.063-0.157-0.129-0.313-0.198-0.467   c-0.059-0.132-0.122-0.259-0.185-0.388c-0.081-0.165-0.162-0.329-0.249-0.489c-0.056-0.103-0.116-0.202-0.175-0.304   c-0.104-0.18-0.208-0.358-0.32-0.532c-0.028-0.045-0.06-0.087-0.089-0.131c-0.642-0.965-1.407-1.839-2.276-2.6   c0,0-0.002-0.001-0.003-0.002c-0.216-0.189-0.439-0.369-0.668-0.543c-0.016-0.013-0.031-0.025-0.047-0.037   c-0.226-0.17-0.456-0.331-0.692-0.487c-0.019-0.012-0.037-0.024-0.056-0.037c-0.239-0.155-0.483-0.304-0.732-0.442   c-0.014-0.008-0.026-0.015-0.039-0.021c-0.753-0.418-1.546-0.772-2.382-1.035c2.221,0.248,4.17,0.632,4.17,0.632   c-0.497-0.273-0.933-0.628-1.321-1.038c-3.083-3.25-2.996-10.143-2.996-10.143c0.774-16.936-10.402-16.05-10.402-16.05   l-0.008,0.026l-0.008-0.026c0,0-11.177-0.885-10.402,16.05c0,0,0.087,6.877-2.985,10.131c-0.391,0.415-0.831,0.773-1.332,1.05   c0,0,1.192-0.081,2.788-0.111c-1.743,0.777-3.279,1.934-4.512,3.358c-0.002,0.003-0.004,0.006-0.007,0.009   c-0.192,0.223-0.379,0.452-0.556,0.688c-0.01,0.013-0.019,0.026-0.028,0.04c-0.169,0.227-0.332,0.458-0.486,0.694   c-0.018,0.028-0.035,0.059-0.052,0.087c-0.144,0.225-0.282,0.451-0.412,0.686c-0.025,0.046-0.048,0.094-0.073,0.141   c-0.118,0.219-0.233,0.44-0.338,0.666c-0.031,0.066-0.058,0.137-0.088,0.204c-0.093,0.21-0.186,0.42-0.268,0.636   c-0.034,0.091-0.063,0.184-0.096,0.275c-0.069,0.197-0.141,0.395-0.202,0.595c-0.035,0.117-0.063,0.237-0.094,0.354   c-0.049,0.181-0.101,0.361-0.143,0.545c-0.033,0.146-0.056,0.297-0.083,0.445c-0.03,0.16-0.064,0.317-0.089,0.48   c-0.028,0.188-0.044,0.381-0.064,0.572c-0.013,0.126-0.032,0.25-0.042,0.376c-0.024,0.321-0.036,0.645-0.036,0.971   c0,0.294,0.013,0.568,0.033,0.835c0.005,0.068,0.011,0.136,0.017,0.202c0.023,0.241,0.052,0.476,0.09,0.695   c0.003,0.016,0.004,0.033,0.007,0.049c0.043,0.232,0.097,0.448,0.157,0.656c0.016,0.053,0.032,0.104,0.048,0.155   c0.058,0.181,0.122,0.354,0.194,0.517c0.009,0.021,0.017,0.044,0.026,0.065c0.082,0.177,0.174,0.342,0.271,0.498   c0.024,0.039,0.05,0.077,0.076,0.115c0.089,0.131,0.182,0.256,0.283,0.372c0.018,0.021,0.035,0.044,0.053,0.064   c0.117,0.131,0.243,0.251,0.375,0.362c0.033,0.028,0.067,0.055,0.102,0.081c0.115,0.092,0.234,0.178,0.359,0.257   c0.028,0.019,0.056,0.038,0.084,0.056c0.149,0.089,0.306,0.171,0.468,0.246c0.041,0.019,0.083,0.036,0.125,0.054   c0.137,0.06,0.277,0.114,0.423,0.164c0.041,0.014,0.08,0.028,0.121,0.042c0.177,0.057,0.359,0.105,0.546,0.15   c0.05,0.012,0.101,0.022,0.152,0.033c0.153,0.034,0.31,0.064,0.471,0.091c0.055,0.01,0.108,0.02,0.164,0.027   c0.198,0.03,0.401,0.057,0.609,0.078c0.062,0.007,0.126,0.012,0.189,0.018c0.162,0.015,0.327,0.027,0.494,0.038   c0.074,0.004,0.146,0.009,0.22,0.013c0.213,0.012,0.429,0.02,0.651,0.025c0.081,0.002,0.165,0.003,0.248,0.005   c0.158,0.002,0.317,0.004,0.479,0.005c0.092,0,0.184,0.001,0.277,0c0.322,0,0.65-0.004,0.985-0.011   c0.135-0.002,0.27-0.004,0.406-0.007c0.214-0.005,0.431-0.01,0.65-0.016c0.991-0.024,2.026-0.052,3.092-0.052h13.33   c1.064,0,2.099,0.027,3.09,0.052c0.222,0.006,0.442,0.011,0.66,0.016c0.134,0.003,0.266,0.005,0.398,0.007   c0.334,0.007,0.663,0.011,0.984,0.011c0.094,0.001,0.186,0,0.276,0c0.162-0.001,0.321-0.003,0.479-0.005   c0.083-0.002,0.167-0.003,0.249-0.005c0.221-0.006,0.436-0.014,0.648-0.025c0.076-0.004,0.15-0.009,0.226-0.014   c0.164-0.01,0.327-0.022,0.487-0.037c0.064-0.006,0.13-0.011,0.194-0.018c0.206-0.021,0.408-0.047,0.604-0.077   c0.059-0.009,0.115-0.02,0.173-0.029c0.157-0.026,0.31-0.056,0.46-0.089c0.054-0.012,0.107-0.022,0.16-0.035   c0.186-0.044,0.365-0.093,0.54-0.148c0.045-0.015,0.088-0.03,0.132-0.046c0.14-0.048,0.276-0.102,0.409-0.158   c0.045-0.02,0.091-0.038,0.135-0.059c0.159-0.074,0.313-0.154,0.461-0.242c0.032-0.02,0.063-0.041,0.094-0.062   c0.12-0.077,0.236-0.161,0.349-0.249c0.036-0.029,0.072-0.057,0.107-0.087c0.131-0.111,0.255-0.229,0.371-0.358   c0.021-0.022,0.039-0.048,0.059-0.071c0.099-0.114,0.19-0.236,0.276-0.364c0.026-0.039,0.054-0.079,0.079-0.12   c0.098-0.155,0.188-0.319,0.27-0.495c0.011-0.022,0.02-0.048,0.029-0.071c0.071-0.16,0.135-0.331,0.19-0.51   c0.018-0.052,0.034-0.104,0.05-0.158c0.06-0.208,0.114-0.423,0.156-0.654c0.004-0.017,0.005-0.035,0.008-0.053   c0.039-0.218,0.067-0.451,0.09-0.691c0.007-0.067,0.013-0.135,0.018-0.204c0.019-0.266,0.032-0.54,0.032-0.834   c0-0.344-0.016-0.684-0.042-1.021C69.46,65.354,69.442,65.239,69.431,65.124z M57.433,54.78c-0.082,0.149-0.18,0.297-0.289,0.44   c-0.009,0.012-0.019,0.023-0.027,0.035c-0.223,0.283-0.499,0.552-0.822,0.8c-0.011,0.009-0.021,0.018-0.032,0.026   c-0.157,0.119-0.327,0.232-0.504,0.342c-0.024,0.015-0.05,0.029-0.075,0.046c-0.182,0.107-0.37,0.212-0.57,0.31   c-0.004,0.002-0.009,0.004-0.013,0.006c-0.193,0.094-0.396,0.181-0.604,0.263c-0.037,0.015-0.073,0.03-0.111,0.044   c-0.206,0.079-0.419,0.152-0.639,0.22c-0.048,0.016-0.097,0.029-0.145,0.044c-0.219,0.064-0.442,0.124-0.672,0.177   c-0.011,0.002-0.021,0.005-0.032,0.008l-2.994,4.866l-2.995-4.866c-1.631-0.369-2.985-1.033-3.846-1.87   c-0.287-0.279-0.519-0.577-0.688-0.89c1.035,0.089,1.97,0.24,2.647,0.477c0.274,0.095,0.501,0.206,0.678,0.332   c0.127,0.091,0.236,0.188,0.303,0.296l-0.093-0.207l-1.556-3.471c1.58,1.578,3.49,2.503,5.549,2.503   c2.011,0,3.881-0.883,5.44-2.395l-1.15,2.395c0.259-0.426,1-0.64,1.968-0.724c0.477-0.042,1.005-0.055,1.566-0.04   C57.678,54.232,57.576,54.512,57.433,54.78z M58.498,41.955c-0.169,2.242-0.739,4.307-1.604,6.039   c-1.572,3.151-4.118,5.2-6.993,5.2c-4.381,0-8.001-4.76-8.57-10.933c0,0,3.459-0.573,5.525-1.388c0,0,3.744-1.251,8.315-4.542   c0.022-0.016,0.045-0.032,0.068-0.049c0,0,0.081,0.118,0.198,0.318c0.396,0.68,1.246,2.707-0.36,3.634l2.927,0.372h0.054   l0.535,0.099C58.588,41.129,58.558,41.546,58.498,41.955z"></path></g></svg></g></g></svg>