<svg xmlns="http://www.w3.org/2000/svg" xmlns:xlink="http://www.w3.org/1999/xlink" width="100" height="100" viewBox="0 0 100 100"><g><g transform="translate(50 50) scale(0.69 0.69) rotate(0) translate(-50 -50)" style="fill:#000000"><svg fill="#000000" xmlns="http://www.w3.org/2000/svg" xmlns:xlink="http://www.w3.org/1999/xlink" version="1.1" x="0px" y="0px" viewBox="0 0 512 512" style="enable-background:new 0 0 512 512;" xml:space="preserve"><g><g><g><g><path d="M16.9,500.5h272.7c4.4,0,8-3.6,8-8v-55.9c0-42-32.2-76.7-73.2-80.7c15.2-20,23.5-44.3,23.5-68.8v-10.3l14.1-11.3      c0,0,0.1,0,0.1-0.1c7.3-6,11.5-14.9,11.5-24.3c0-4-0.8-8-2.3-11.7c-3.8-9.5-12.8-16.4-23.2-18.6v-38.9      c0-18.2-13.6-33.9-31.7-36.4c-1.7-0.2-3.4-0.4-5.1-0.4h-11.2c0-3.4-0.6-6.8-1.6-10.1c-4.7-15.4-19.1-26.2-35.2-26.2H36.2v45.6      c0,14.4,8.5,27.4,21.2,33.3v33c-10.1,2.2-18.5,9.1-22.3,18.7c-5.1,12.8-1.4,27.3,9.2,36.1l13.1,10.7v11.3      c0,24.4,8.2,48.5,23.3,68.5c-40.4,4.6-71.8,39-71.8,80.5v55.9C8.9,496.9,12.4,500.5,16.9,500.5z M248,227.4      c4.2,1.7,7.4,4.9,8.6,8c0.7,1.9,1.1,3.8,1.1,5.8c0,4.6-2,9-5.6,11.9l-4.1,3.3V227.4z M57.4,255.5l-2.9-2.4      c-5.2-4.3-7.1-11.4-4.5-17.7c1.4-3.5,4.1-6.3,7.5-7.9L57.4,255.5L57.4,255.5z M281.6,436.6v47.9h-42v-34.7h-16v34.7h-62.4v-71.8      l44.9-37.6c1.4-1.2,2.7-2.4,4.1-3.6h6.3C252.4,371.5,281.6,400.7,281.6,436.6z M67.5,164.5L67.5,164.5      c-9-2.5-15.3-10.7-15.3-20.1v-29.6h111.2c9.1,0,17.3,6.1,19.9,14.8c0.6,2,0.9,4,0.9,6v15.5h27.2c1,0,2,0.1,2.9,0.2      c10.2,1.4,17.9,10.3,17.9,20.6v29.6h-19.7c-22.1,0-42-12.2-52-31.9l-2.2-4.4H90.4c-1.5,0-16.9,0-18.5,0      C70.4,165.1,68.9,164.9,67.5,164.5z M107.6,181.2h41.1c13.4,22.5,37.4,36.3,63.9,36.3h19l-27.7,64.1      c-5.2-4.5-11.1-8.3-17.3-11.2c-10-4.7-21.1-7.2-32.2-7.2h-3.2c-18.3,0-35.8,6.6-49.5,18.4L75,219.9      C91,212.4,102.9,198.3,107.6,181.2z M73.4,202.6v-21.4c4.9,0,16.9,0,17,0h0.3C87.4,190,81.3,197.5,73.4,202.6z M73.4,287.5      v-13.1c0.3-1.2,0.3-2.4,0-3.6v-14.3l18.2,42.2c1.1,2.5,3.4,4.3,6.2,4.7c0.4,0.1,0.8,0.1,1.2,0.1c2.3,0,4.6-1,6.1-2.8l0.6-0.7      c11.4-13.3,28-20.9,45.5-20.9h3.2c8.7,0,17.5,2,25.4,5.7c8,3.7,14.9,9.1,20.6,15.9c1.8,2.1,4.5,3.2,7.3,2.8      c2.8-0.4,5.1-2.2,6.2-4.7l18.2-42.1v15.5c0,0.5,0,1,0,1.4v13.5c0,13.4-2.9,26.8-8.4,39.1v-9.9h-16v35.1      c-1.9,2.2-3.9,4.4-6.1,6.4c-1.8,1.7-3.7,3.4-5.6,5l-3.8,3.2v-30.5h-16v43.8l-15.4,12.9v-42.8h-16v43.7L129.2,380v-44.5h-16v31      l-4.3-3.7c-1.9-1.6-3.7-3.3-5.5-5c-1.9-1.9-3.8-3.9-5.6-6V318h-16v8.6C76.3,314.3,73.4,301,73.4,287.5z M24.9,436.6      c0-35.9,29.2-65.1,65.1-65.1h4.7c1.3,1.2,2.6,2.4,3.9,3.5l46.6,39.6v69.9H82.5v-34.7h-16v34.7H24.9V436.6z"></path><rect x="174.5" y="431.6" width="12.4" height="16"></rect><rect x="174.5" y="466.5" width="12.4" height="16"></rect><path d="M500.9,218.2c-0.1-15.2-32.2-19.3-51.9-19.3c-0.3,0-0.6,0-1,0c-1.9,0-3.8,0.1-5.7,0.1l-0.1-7.7l0,0l0,0l-0.4-58.4      c-0.1-15.2-32.2-19.3-51.9-19.3c-0.3,0-0.6,0-1,0c-13,0.1-25.3,1.7-34.7,4.5c-11.9,3.6-17.9,8.8-17.9,15.5l0.1,19.5l0,0      l0.1,19.5l0,0l0.4,58.4c0,6.8,6.1,11.9,18.1,15.3c9.1,2.6,21,4,33.6,4c0.4,0,0.8,0,1.2,0c1.9,0,3.8-0.1,5.7-0.2l0.1,7.7      c0,6.8,6.1,11.9,18.1,15.3c9.1,2.6,21,4,33.6,4c0.4,0,0.8,0,1.2,0c13.1-0.1,25.4-1.7,34.7-4.4c11.9-3.6,17.9-8.8,17.9-15.5h-6h6      L500.9,218.2z M489,237.3c-2,2.6-15.7,8.2-40.7,8.4c-24.9,0.2-38.7-5.3-40.8-7.8v-5.7c1.8,0.7,3.8,1.4,6,2.1      c9.1,2.6,21,4,33.6,4c0.4,0,0.8,0,1.1,0c12.1-0.1,29.3-1.8,40.7-6.7L489,237.3z M448.1,210.9c23.3-0.2,36.9,4.7,40.2,7.4      c-3.3,2.7-16.8,7.7-40.1,7.9c-23.3,0.2-36.9-4.7-40.2-7.4C411.3,216.1,424.8,211.1,448.1,210.9z M430.2,171.5      c-2,2.6-15.7,8.2-40.7,8.4c-24.9,0.2-38.7-5.3-40.8-7.8v-5.6c1.8,0.7,3.8,1.4,6,2c9.1,2.6,21,4,33.6,4c0.4,0,0.8,0,1.2,0      c13.1-0.1,25.4-1.7,34.7-4.4c2.2-0.7,4.2-1.4,6-2.1L430.2,171.5z M389.1,125.7c23.3-0.2,36.9,4.7,40.2,7.4      c-3.3,2.7-16.8,7.7-40.1,7.9c-23.3,0.1-36.9-4.7-40.2-7.4C352.3,130.8,365.8,125.8,389.1,125.7z M388.4,152.9c0.3,0,0.6,0,1,0      c13-0.1,25.3-1.7,34.7-4.5c2.2-0.7,4.2-1.4,6-2.1v5.7c-2,2.6-15.7,8.2-40.7,8.4c-24.9,0.2-38.7-5.3-40.8-7.8v-5.8      C359.7,151.4,376.4,152.9,388.4,152.9z M349.1,230.9h-6H349.1L349.1,230.9z M389.9,238.3c-24.9,0.2-38.7-5.3-40.8-7.8v-5.6      c1.8,0.7,3.8,1.4,6,2c9.1,2.6,21,4,33.6,4c0.4,0,0.8,0,1.2,0c2,0,3.8-0.1,5.7-0.2v7.5C393.7,238.2,391.8,238.3,389.9,238.3z       M395.5,218.6c-1.9,0.1-3.7,0.2-5.7,0.2c-24.9,0.2-38.7-5.3-40.8-7.8v-5.6c1.8,0.7,3.8,1.4,6,2c9.1,2.6,21,4,33.6,4      c0.4,0,0.8,0,1.2,0c3.1,0,6.1-0.1,9.1-0.3C396.6,213.3,395.5,215.8,395.5,218.6z M389.6,199.3c-24.9,0.2-38.7-5.3-40.8-7.8v-5.6      c1.8,0.7,3.8,1.4,6,2c9.1,2.6,21,4,33.6,4c0.4,0,0.8,0,1.2,0c13.1-0.1,25.4-1.7,34.7-4.4c2.2-0.7,4.2-1.4,6-2.1v5.6      C428.3,193.5,414.6,199.2,389.6,199.3z M407.7,257.8h-6H407.7L407.7,257.8z M448.5,265.1c-24.9,0.2-38.7-5.3-40.8-7.8v-5.6      c1.8,0.7,3.8,1.4,6,2c9.1,2.6,21,4,33.6,4c0.4,0,0.8,0,1.2,0c13.1-0.1,25.4-1.7,34.7-4.4c2.2-0.7,4.2-1.4,6-2.1v5.6      C487.1,259.3,473.4,265,448.5,265.1z"></path><rect x="307.7" y="149.7" width="12" height="45.9"></rect><rect x="276.1" y="132.3" width="12" height="63.2"></rect><path d="M282.8,111.4c11.9,0,21.6-9.7,21.6-21.6c0-0.9-0.1-1.8-0.2-2.6l12.6-10.4c3.7,6.7,10.8,11.3,19,11.3      c11.9,0,21.6-9.7,21.6-21.6v-0.1l17.4,3.4C378.3,77,385.7,82,394.2,82c11.8,0,21.4-9.5,21.6-21.2l17.3-9.8      c3.8,3.2,8.6,5.1,13.9,5.1c11.9,0,21.6-9.7,21.6-21.6s-9.7-21.6-21.6-21.6s-21.6,9.7-21.6,21.6c0,2.3,0.4,4.5,1,6.5l-14,7.9      c-3.8-6.1-10.6-10.1-18.3-10.1c-10.9,0-19.9,8.1-21.4,18.5l-20-3.9c-4-5.1-10.2-8.4-17.1-8.4c-10.8,0-19.8,8-21.4,18.4      l-15.3,12.5c-4-4.6-9.9-7.6-16.4-7.6c-11.9,0-21.6,9.7-21.6,21.6S270.8,111.4,282.8,111.4z M447.2,24.7c5.3,0,9.6,4.3,9.6,9.6      s-4.3,9.6-9.6,9.6c-5.3,0-9.6-4.3-9.6-9.6S441.9,24.7,447.2,24.7z M394.3,50.6c5.3,0,9.6,4.3,9.6,9.6s-4.3,9.6-9.6,9.6      c-5.3,0-9.6-4.3-9.6-9.6S389,50.6,394.3,50.6z M335.9,56.8c5.3,0,9.6,4.3,9.6,9.6s-4.3,9.6-9.6,9.6c-5.3,0-9.6-4.3-9.6-9.6      S330.6,56.8,335.9,56.8z M282.8,80.1c5.3,0,9.6,4.3,9.6,9.6s-4.3,9.6-9.6,9.6c-5.3,0-9.6-4.3-9.6-9.6S277.5,80.1,282.8,80.1z"></path></g></g></g></g></svg></g></g></svg>