<svg xmlns="http://www.w3.org/2000/svg" xmlns:xlink="http://www.w3.org/1999/xlink" width="100" height="100" viewBox="0 0 100 100"><g><g transform="translate(50 50) scale(0.69 0.69) rotate(0) translate(-50 -50)" style="fill:#000000"><svg fill="#000000" xmlns="http://www.w3.org/2000/svg" xmlns:xlink="http://www.w3.org/1999/xlink" version="1.1" x="0px" y="0px" viewBox="0 0 63 63" enable-background="new 0 0 63 63" xml:space="preserve"><g><path d="M49.9,36.7l-9.4-3.4l0,0c-1.2-0.5-2.6-1.5-2.9-2.5c3.2-2.8,5.5-7.5,6.4-11.5c0.1,0,0.5,0.1,0.5,0.1c1.1,0,2-0.9,2-2v-3   c0-0.7-0.4-1.4-1-1.7c-0.4-6.8-6.1-12.3-13-12.3h-2c-7,0-12.7,5.5-13,12.4c-0.5,0.3-1,0.8-1,1.6v3c0,1.1,0.9,2,2,2   c0,0,0.4-0.1,0.5-0.1c0.9,4,3.3,8.7,6.4,11.5c-0.3,0.9-1.7,2-2.9,2.5l0,0l-9.4,3.3C8,38.6,4.5,43.5,4.5,48.9v13.6h54V48.9   C58.5,43.5,55,38.6,49.9,36.7z M18.5,14.7c0.1-0.1,1-0.5,1-0.5v-0.6c0-6.1,4.9-11,11-11h2c6.1,0,11,4.9,11,11v1h1v3   c-4.5-1.3-8.8-1.9-13-1.9c-4.2,0-8.5,0.6-13,1.9V14.7z M20.9,18.9c7.3-1.8,13.9-1.8,21.2,0c-1.4,6.2-5.8,12.6-10.6,12.6   C26.8,31.5,22.3,25.1,20.9,18.9z M27,32.1c1.4,0.9,2.9,1.4,4.5,1.4c1.6,0,3.1-0.5,4.5-1.4c0.6,1.1,1.8,2.1,3,2.7l-3.8,3.6l-7.2,0   c-1.4-1.4-2.8-2.8-3.8-3.7C25.3,34.2,26.4,33.2,27,32.1z M56.5,60.5h-8v-4h-2v4h-30v-4h-2v4h-8V48.9c0-4.6,2.9-8.8,7.3-10.4l8.3-3   c0.9,0.8,5,4.9,5,4.9l8.8,0l5.1-4.9l8.2,2.9c4.4,1.6,7.3,5.7,7.3,10.4V60.5z"></path><rect x="41.5" y="39.1" transform="matrix(-0.9415 -0.337 0.337 -0.9415 76.0605 93.3549)" width="9.4" height="2"></rect><rect x="15.9" y="35.4" transform="matrix(-0.3369 -0.9415 0.9415 -0.3369 -15.1824 69.4596)" width="2" height="9.4"></rect><path d="M42.5,52l4,2.7l4-2.7v-4.5h-8V52z M44.5,49.5h4V51l-2,1.3l-2-1.3V49.5z"></path></g></svg></g></g></svg>